<svg xmlns="http://www.w3.org/2000/svg" xmlns:xlink="http://www.w3.org/1999/xlink" width="70" height="70" viewBox="0 0 70 70">
    <defs>
        <path id="a" d="M0 0h69.224v70H0z"/>
        <path id="c" d="M.3 33.1A33.209 33.209 0 0 0 4.691 49.65L.025 66.802l17.436-4.603a32.71 32.71 0 0 0 15.718 4.028h.014c18.127 0 32.883-14.85 32.89-33.1.004-8.845-3.414-17.162-9.624-23.418C50.249 3.452 41.99.005 33.192 0 15.062 0 .308 14.849.3 33.1m32.893 33.126h0m.003 0c-.003 0-.005 0 0 0"/>
        <linearGradient id="d" x1="50%" x2="50%" y1="100%" y2="0%">
            <stop offset="0%" stop-color="#1FAF38"/>
            <stop offset="100%" stop-color="#60D669"/>
        </linearGradient>
    </defs>
    <g fill="none" fill-rule="evenodd">
        <g>
            <mask id="b" fill="#fff">
                <use xlink:href="#a"/>
            </mask>
            <path fill="#E0E0E0" d="M34.757 63.541h-.011a28.468 28.468 0 0 1-14.581-4.02l-1.047-.624L8.275 61.76l2.895-10.638-.682-1.091a28.896 28.896 0 0 1-4.38-15.343c.007-15.896 12.858-28.828 28.66-28.828 7.652.003 14.844 3.006 20.253 8.455 5.409 5.449 8.385 12.693 8.383 20.396-.007 15.897-12.858 28.831-28.647 28.831zm24.381-53.369C52.63 3.616 43.977.004 34.757 0 15.758 0 .297 15.56.289 34.685a34.802 34.802 0 0 0 4.6 17.341L0 70l18.272-4.823a34.263 34.263 0 0 0 16.47 4.222h.015c18.995 0 34.459-15.562 34.467-34.686.003-9.27-3.579-17.984-10.086-24.54z" mask="url(#b)"/>
        </g>
        <g transform="translate(1.558 1.204)">
            <mask id="e" fill="#fff">
                <use xlink:href="#c"/>
            </mask>
            <path fill="url(#d)" d="M.3 33.1A33.209 33.209 0 0 0 4.691 49.65L.025 66.802l17.436-4.603a32.71 32.71 0 0 0 15.718 4.028h.014c18.127 0 32.883-14.85 32.89-33.1.004-8.845-3.414-17.162-9.624-23.418C50.249 3.452 41.99.005 33.192 0 15.062 0 .308 14.849.3 33.1m32.893 33.126h0m.003 0c-.003 0-.005 0 0 0" mask="url(#e)"/>
        </g>
        <g fill="#FFF">
            <path d="M26.24 19.96c-.638-1.428-1.31-1.456-1.916-1.481-.496-.022-1.064-.02-1.632-.02-.567 0-1.49.214-2.27 1.072-.78.857-2.98 2.93-2.98 7.147 0 4.217 3.051 8.291 3.477 8.864.425.571 5.89 9.5 14.542 12.936 7.192 2.855 8.655 2.287 10.216 2.144 1.561-.143 5.037-2.073 5.746-4.074.71-2.001.71-3.716.497-4.075-.213-.357-.78-.571-1.632-1-.851-.428-5.037-2.502-5.817-2.788-.78-.285-1.348-.428-1.916.43-.568.857-2.198 2.787-2.695 3.358-.496.573-.993.644-1.845.216-.851-.43-3.593-1.334-6.846-4.254-2.53-2.271-4.239-5.076-4.736-5.934-.496-.857-.053-1.322.374-1.749.382-.384.852-1 1.277-1.5.425-.501.567-.858.85-1.43.285-.572.143-1.073-.07-1.501-.213-.429-1.867-4.667-2.624-6.362z"/>
            <path d="M34.755 62.818h-.01a28.142 28.142 0 0 1-14.414-3.973l-1.035-.617-10.718 2.829 2.861-10.517-.674-1.078a28.564 28.564 0 0 1-4.33-15.167c.007-15.713 12.71-28.497 28.33-28.497 7.565.003 14.675 2.971 20.022 8.358 5.347 5.386 8.289 12.547 8.287 20.163-.007 15.714-12.71 28.5-28.319 28.5m24.101-52.757C52.423 3.582 43.87.011 34.756.007 15.974.007.69 15.387.682 34.293a34.402 34.402 0 0 0 4.548 17.142L.397 69.203l18.062-4.768a33.87 33.87 0 0 0 16.282 4.174h.014c18.778 0 34.064-15.384 34.072-34.288.003-9.163-3.538-17.778-9.97-24.259"/>
        </g>
    </g>
</svg>
